<svg width="381" height="217" viewBox="0 0 381 217" fill="none" xmlns="http://www.w3.org/2000/svg">
<path d="M291.545 144.68C294.888 144.68 298.232 145.323 301.252 146.395C314.303 151.005 320.02 161.297 320.02 174.59C320.02 193.887 311.068 205.68 290.79 205.68C274.071 205.68 261.02 193.244 261.02 176.413C261.02 160.439 275.042 144.68 291.545 144.68ZM301.684 174.698C301.684 168.051 298.987 162.905 291.545 162.905C285.073 162.905 279.356 170.624 279.356 176.735C279.356 183.381 284.534 187.455 291.005 187.455C300.713 187.455 301.684 183.274 301.684 174.698Z" fill="#FFC33F"/>
<path d="M211.52 139.44V117.68L277.952 118.064V139.824L254.784 139.696C254.528 146.352 254.016 153.008 254.016 159.664C254.016 166.832 254.912 173.872 255.68 181.04C256.704 190 257.6 199.088 259.136 208.048L237.76 211.888C234.688 194.608 232.256 177.2 232.256 159.664C232.256 152.88 232.768 146.224 233.024 139.568L211.52 139.44Z" fill="#FFC33F"/>
<path d="M133.904 123.488L155.536 120.672C157.712 136.16 171.792 152.8 182.032 164.192C182.288 147.936 183.568 131.808 184.08 115.68L205.84 116.576C205.328 133.856 203.792 151.136 203.792 168.416C203.792 180.832 205.712 193.12 209.168 205.152L188.048 210.784C187.024 206.688 186 202.72 185.104 198.624C176.144 189.536 167.056 180.448 158.736 170.464C159.376 185.952 157.968 201.44 154.768 216.544L133.52 211.808C135.824 201.056 137.232 189.92 137.232 178.912C137.232 167.904 136.08 156.768 135.44 145.76C134.928 138.336 134.928 130.912 133.904 123.488Z" fill="#FFC33F"/>
<path d="M99.0459 212.883L79.7431 214.68C79.9702 206.37 78.267 198.285 77.1316 190.088C75.6555 179.083 74.52 168.078 74.52 156.961C74.52 140.903 79.0618 119.68 99.3866 119.68C103.701 119.68 108.016 121.14 111.65 123.61C128.454 135.064 129.249 165.271 130.157 183.575C130.498 190.762 131.066 197.948 131.52 205.135L112.331 206.82C111.763 199.52 111.309 192.221 110.968 184.922C105.972 185.372 100.976 185.596 95.9802 185.596C97.2292 194.804 99.0459 200.307 99.0459 209.627V212.883ZM94.0499 166.506H98.8188C102.452 166.506 106.086 166.282 109.719 165.945C108.811 157.747 107.675 149.101 103.134 142.026C102.339 140.791 101.09 138.77 99.3866 138.77C98.8188 138.77 98.3646 138.994 97.7969 139.107C94.0499 143.149 93.8228 151.796 93.8228 157.074C93.8228 160.218 93.9364 163.362 94.0499 166.506Z" fill="#FFC33F"/>
<path d="M74.368 125.008L66.944 145.36C58.624 142.416 50.048 140.624 41.216 140.624C35.968 140.624 22.656 141.264 22.656 148.688C22.656 149.968 22.784 151.248 23.296 152.4C27.776 162.512 71.168 162.64 71.168 189.52C71.168 208.848 52.352 214.224 36.352 214.224C28.544 214.224 20.608 212.816 12.928 211.152L17.664 189.904C24.704 191.44 31.744 192.464 39.04 192.464C42.496 192.464 47.104 192.336 49.408 189.776C46.72 186.704 37.504 183.632 33.536 182.224C16.384 175.824 0.895996 169.296 0.895996 148.176C0.895996 126.416 23.04 118.864 41.216 118.864C52.48 118.864 63.744 121.04 74.368 125.008Z" fill="#FFC33F"/>
<path d="M261.968 70.7755L277.341 86.1391C272.852 90.6522 267.886 94.8498 262.232 98.1138C243.277 109.058 220.488 107.73 208.712 87.3338C196.168 65.6069 200.593 36.152 223.207 23.096C234.181 16.76 249.128 18.3287 255.848 29.9681C267.496 50.1431 250.548 69.6832 236.557 83.0819C241.879 83.852 246.918 81.8291 251.352 79.2691C255.343 76.9651 258.775 73.9492 261.968 70.7755ZM223.839 65.1503C228.281 60.8121 241.036 47.8317 237.196 41.1807C237.004 40.8481 234.752 41.5567 234.309 41.8127C225.662 46.8047 222.748 55.5816 223.839 65.1503Z" fill="#FFC33F"/>
<path d="M201.815 30.976L195.287 51.712C186.711 49.024 178.007 46.336 169.047 46.336C166.615 46.336 164.567 46.72 162.903 48.512C165.207 56.448 198.743 58.624 198.743 84.608C198.743 97.92 184.407 105.344 172.503 105.344C164.567 105.344 156.759 104.064 148.951 102.784L151.895 81.152C158.551 82.304 165.335 83.584 172.247 83.584C173.655 83.584 175.063 83.328 176.343 82.816C170.967 74.112 149.463 75.264 142.423 56.064C141.527 53.632 141.015 51.072 141.015 48.512C141.015 33.536 155.351 24.576 169.047 24.576C180.311 24.576 191.191 27.648 201.815 30.976Z" fill="#FFC33F"/>
<path d="M380.32 137.08L373.792 157.816C365.216 155.128 356.512 152.44 347.552 152.44C345.12 152.44 343.072 152.824 341.408 154.616C343.712 162.552 377.248 164.728 377.248 190.712C377.248 204.024 362.912 211.448 351.008 211.448C343.072 211.448 335.264 210.168 327.456 208.888L330.4 187.256C337.056 188.408 343.84 189.688 350.752 189.688C352.16 189.688 353.568 189.432 354.848 188.92C349.472 180.216 327.968 181.368 320.928 162.168C320.032 159.736 319.52 157.176 319.52 154.616C319.52 139.64 333.856 130.68 347.552 130.68C358.816 130.68 369.696 133.752 380.32 137.08Z" fill="#FFC33F"/>
<path d="M123.776 1.91998L137.984 2.94398C136.96 15.488 133.504 19.584 125.184 28.416L118.528 23.04C123.136 16.768 123.136 9.34398 123.776 1.91998ZM113.536 32.768H135.296V40.96C135.296 46.208 135.424 51.456 135.04 56.704C134.912 59.904 134.528 62.976 134.528 66.048C134.528 68.48 134.784 70.784 134.784 73.088C134.784 76.032 134.4 78.976 134.144 81.92C133.632 87.936 133.632 93.952 133.504 99.84H111.744C111.872 93.568 111.872 87.168 112.384 80.768C112.64 78.208 113.024 75.776 113.024 73.216C113.024 70.784 112.768 68.352 112.768 65.92C112.768 57.6 113.664 49.28 113.664 40.96L113.536 32.768Z" fill="#FFC33F"/>
<path d="M10.112 7.68H31.872V17.28C31.872 26.624 31.872 35.968 31.104 45.184C30.08 56.96 28.544 68.736 28.16 80.64C34.432 80.768 40.832 81.024 47.104 81.024C49.92 81.024 61.696 81.024 64.512 80.896V102.656C61.696 102.784 49.92 102.784 47.104 102.784C37.632 102.784 28.032 102.272 18.56 102.272C12.288 102.272 6.272 103.552 0 103.68V81.92C2.176 81.92 4.352 81.664 6.4 81.28C7.04 60.672 10.112 41.856 10.112 20.736V7.68ZM64.256 71.552L42.496 72.32C40.832 59.776 40.32 55.168 40.32 42.496C40.32 24.192 45.44 0 68.352 0C100.096 0 102.016 50.944 103.04 72.832C103.424 81.024 104.064 91.52 104.576 99.712L82.944 101.632C82.304 93.312 81.536 79.104 81.152 70.784C75.52 71.296 69.888 71.552 64.256 71.552ZM62.08 49.792H67.456C71.552 49.792 75.648 49.536 79.744 49.152C79.232 44.16 75.52 21.76 68.352 21.76C60.8 21.76 61.824 43.392 62.08 49.792Z" fill="#FFC33F"/>
</svg>
