<svg width="113" height="125" viewBox="0 0 113 125" fill="none" xmlns="http://www.w3.org/2000/svg">
<path d="M13.1691 0H41.5077V12.4986C41.5077 24.6638 41.5077 36.8291 40.5075 48.8277C39.174 64.1593 37.1736 79.4908 36.6735 94.989C44.8417 95.1557 53.1766 95.489 61.3448 95.489C65.0121 95.489 108.333 96.8222 112 96.6555V124.986C108.333 125.152 65.0121 123.819 61.3448 123.819C49.0091 123.819 36.5068 123.152 24.1712 123.152C16.003 123.152 8.16819 124.819 0 124.986V96.6555C2.83386 96.6555 5.66772 96.3222 8.33488 95.8223C9.16837 68.992 13.1691 44.4949 13.1691 16.998V0Z" fill="white"/>
<path d="M45 82.9477L52.3011 60.0983C61.8926 63.0602 71.6274 66.0222 81.6484 66.0222C84.3684 66.0222 86.659 65.5991 88.52 63.6244C85.9432 54.8796 48.4358 52.4818 48.4358 23.8494C48.4358 9.18067 64.4695 1 77.7832 1C86.6589 1 95.3916 2.41047 104.124 3.82093L100.832 27.6577C93.3874 26.3883 85.8 24.9778 78.0695 24.9778C76.4947 24.9778 74.92 25.2599 73.4884 25.8241C79.5011 35.4152 103.552 34.1458 111.425 55.3027C112.427 57.9826 113 60.8035 113 63.6244C113 80.1268 96.9663 90 81.6484 90C69.0505 90 56.8821 86.6149 45 82.9477Z" fill="white"/>
</svg>
