<svg width="674" height="119" viewBox="0 0 674 119" fill="none" xmlns="http://www.w3.org/2000/svg">
<path d="M585.169 33.6801C588.512 33.6801 591.856 34.3233 594.876 35.3953C607.927 40.0052 613.644 50.2969 613.644 63.5904C613.644 82.8874 604.692 94.6801 584.414 94.6801C567.695 94.6801 554.644 82.2442 554.644 65.4129C554.644 49.4393 568.666 33.6801 585.169 33.6801ZM595.308 63.6976C595.308 57.0509 592.611 51.905 585.169 51.905C578.697 51.905 572.98 59.6238 572.98 65.7345C572.98 72.3813 578.158 76.4551 584.629 76.4551C594.337 76.4551 595.308 72.2741 595.308 63.6976Z" fill="white"/>
<path d="M505.144 28.44V6.68005L571.576 7.06405V28.8241L548.408 28.6961C548.152 35.3521 547.64 42.0081 547.64 48.6641C547.64 55.8321 548.536 62.8721 549.304 70.0401C550.328 79.0001 551.224 88.0881 552.76 97.0481L531.384 100.888C528.312 83.6081 525.88 66.2001 525.88 48.6641C525.88 41.8801 526.392 35.224 526.648 28.568L505.144 28.44Z" fill="white"/>
<path d="M427.528 12.4881L449.16 9.67205C451.336 25.1601 465.416 41.8001 475.656 53.1921C475.912 36.9361 477.192 20.8081 477.704 4.68005L499.464 5.57605C498.952 22.8561 497.416 40.1361 497.416 57.4161C497.416 69.8321 499.336 82.1201 502.792 94.1521L481.672 99.784C480.648 95.688 479.624 91.7201 478.728 87.6241C469.768 78.5361 460.68 69.4481 452.36 59.4641C453 74.9521 451.592 90.4401 448.392 105.544L427.144 100.808C429.448 90.0561 430.856 78.9201 430.856 67.9121C430.856 56.9041 429.704 45.7681 429.064 34.7601C428.552 27.3361 428.552 19.9121 427.528 12.4881Z" fill="white"/>
<path d="M392.67 101.883L373.367 103.68C373.594 95.3704 371.891 87.2853 370.756 79.0879C369.279 68.0831 368.144 57.0784 368.144 45.9614C368.144 29.9035 372.686 8.68005 393.011 8.68005C397.325 8.68005 401.64 10.1399 405.273 12.6103C422.078 24.0642 422.873 54.2711 423.781 72.5748C424.122 79.7616 424.69 86.9484 425.144 94.1351L405.955 95.8195C405.387 88.5205 404.933 81.2214 404.592 73.9224C399.596 74.3716 394.6 74.5961 389.604 74.5961C390.853 83.8042 392.67 89.3065 392.67 98.6269V101.883ZM387.674 55.5063H392.443C396.076 55.5063 399.71 55.2817 403.343 54.9448C402.435 46.7474 401.299 38.1009 396.758 31.0264C395.963 29.7912 394.714 27.7699 393.011 27.7699C392.443 27.7699 391.989 27.9945 391.421 28.1068C387.674 32.1493 387.447 40.7959 387.447 46.0737C387.447 49.2179 387.56 52.3621 387.674 55.5063Z" fill="white"/>
<path d="M367.992 14.008L360.568 34.36C352.248 31.416 343.672 29.624 334.84 29.624C329.592 29.624 316.28 30.264 316.28 37.688C316.28 38.968 316.408 40.248 316.92 41.4C321.4 51.512 364.792 51.64 364.792 78.52C364.792 97.848 345.976 103.224 329.976 103.224C322.168 103.224 314.232 101.816 306.552 100.152L311.288 78.904C318.328 80.44 325.368 81.464 332.664 81.464C336.12 81.464 340.728 81.336 343.032 78.776C340.344 75.704 331.128 72.632 327.16 71.224C310.008 64.824 294.52 58.296 294.52 37.176C294.52 15.416 316.664 7.86401 334.84 7.86401C346.104 7.86401 357.368 10.04 367.992 14.008Z" fill="white"/>
<path d="M261.968 70.7755L277.341 86.1391C272.852 90.6522 267.886 94.8498 262.232 98.1138C243.277 109.058 220.488 107.73 208.712 87.3338C196.168 65.6069 200.593 36.152 223.207 23.096C234.181 16.76 249.128 18.3287 255.848 29.9681C267.496 50.1431 250.548 69.6832 236.557 83.0819C241.879 83.852 246.918 81.8291 251.352 79.2691C255.343 76.9651 258.775 73.9492 261.968 70.7755ZM223.839 65.1503C228.281 60.8121 241.036 47.8317 237.196 41.1807C237.004 40.8481 234.752 41.5567 234.309 41.8127C225.662 46.8047 222.748 55.5816 223.839 65.1503Z" fill="white"/>
<path d="M201.815 30.9761L195.287 51.7121C186.711 49.0241 178.007 46.3361 169.047 46.3361C166.615 46.3361 164.567 46.7201 162.903 48.5121C165.207 56.4481 198.743 58.6241 198.743 84.6081C198.743 97.9201 184.407 105.344 172.503 105.344C164.567 105.344 156.759 104.064 148.951 102.784L151.895 81.1521C158.551 82.3041 165.335 83.5841 172.247 83.5841C173.655 83.5841 175.063 83.3281 176.343 82.8161C170.967 74.1121 149.463 75.2641 142.423 56.0641C141.527 53.632 141.015 51.0721 141.015 48.5121C141.015 33.536 155.351 24.576 169.047 24.576C180.311 24.576 191.191 27.648 201.815 30.9761Z" fill="white"/>
<path d="M673.944 26.0801L667.416 46.8161C658.84 44.1281 650.136 41.4401 641.176 41.4401C638.744 41.4401 636.696 41.8241 635.032 43.6161C637.336 51.5521 670.872 53.7281 670.872 79.7121C670.872 93.0241 656.536 100.448 644.632 100.448C636.696 100.448 628.888 99.1681 621.08 97.8881L624.024 76.2561C630.68 77.4081 637.464 78.6881 644.376 78.6881C645.784 78.6881 647.192 78.4321 648.472 77.9201C643.096 69.2161 621.592 70.3681 614.552 51.1681C613.656 48.7361 613.144 46.1761 613.144 43.6161C613.144 28.6401 627.48 19.6801 641.176 19.6801C652.44 19.6801 663.32 22.7521 673.944 26.0801Z" fill="white"/>
<path d="M123.776 1.92004L137.984 2.94404C136.96 15.488 133.504 19.584 125.184 28.416L118.528 23.04C123.136 16.768 123.136 9.34404 123.776 1.92004ZM113.536 32.768H135.296V40.96C135.296 46.208 135.424 51.456 135.04 56.704C134.912 59.904 134.528 62.976 134.528 66.048C134.528 68.48 134.784 70.784 134.784 73.088C134.784 76.032 134.4 78.976 134.144 81.92C133.632 87.936 133.632 93.952 133.504 99.84H111.744C111.872 93.568 111.872 87.168 112.384 80.768C112.64 78.208 113.024 75.776 113.024 73.216C113.024 70.784 112.768 68.352 112.768 65.92C112.768 57.6 113.664 49.28 113.664 40.96L113.536 32.768Z" fill="white"/>
<path d="M10.112 7.68H31.872V17.28C31.872 26.624 31.872 35.968 31.104 45.184C30.08 56.96 28.544 68.736 28.16 80.64C34.432 80.768 40.832 81.024 47.104 81.024C49.92 81.024 61.696 81.024 64.512 80.896V102.656C61.696 102.784 49.92 102.784 47.104 102.784C37.632 102.784 28.032 102.272 18.56 102.272C12.288 102.272 6.272 103.552 0 103.68V81.92C2.176 81.92 4.352 81.664 6.4 81.28C7.04 60.672 10.112 41.856 10.112 20.736V7.68ZM64.256 71.552L42.496 72.32C40.832 59.776 40.32 55.168 40.32 42.496C40.32 24.192 45.44 0 68.352 0C100.096 0 102.016 50.944 103.04 72.832C103.424 81.024 104.064 91.52 104.576 99.712L82.944 101.632C82.304 93.312 81.536 79.104 81.152 70.784C75.52 71.296 69.888 71.552 64.256 71.552ZM62.08 49.792H67.456C71.552 49.792 75.648 49.536 79.744 49.152C79.232 44.16 75.52 21.76 68.352 21.76C60.8 21.76 61.824 43.392 62.08 49.792Z" fill="white"/>
</svg>
