<svg width="674" height="119" viewBox="0 0 674 119" fill="none" xmlns="http://www.w3.org/2000/svg">
<path d="M585.169 33.68C588.512 33.68 591.856 34.3232 594.876 35.3953C607.927 40.0051 613.644 50.2969 613.644 63.5904C613.644 82.8874 604.692 94.68 584.414 94.68C567.695 94.68 554.644 82.2441 554.644 65.4129C554.644 49.4392 568.666 33.68 585.169 33.68ZM595.308 63.6976C595.308 57.0508 592.611 51.905 585.169 51.905C578.697 51.905 572.98 59.6238 572.98 65.7345C572.98 72.3812 578.158 76.455 584.629 76.455C594.337 76.455 595.308 72.274 595.308 63.6976Z" fill="#FFC33F"/>
<path d="M505.144 28.44V6.67999L571.576 7.06399V28.824L548.408 28.696C548.152 35.352 547.64 42.008 547.64 48.664C547.64 55.832 548.536 62.872 549.304 70.04C550.328 79 551.224 88.088 552.76 97.048L531.384 100.888C528.312 83.608 525.88 66.2 525.88 48.664C525.88 41.88 526.392 35.224 526.648 28.568L505.144 28.44Z" fill="#FFC33F"/>
<path d="M427.528 12.488L449.16 9.67199C451.336 25.16 465.416 41.8 475.656 53.192C475.912 36.936 477.192 20.808 477.704 4.67999L499.464 5.57599C498.952 22.856 497.416 40.136 497.416 57.416C497.416 69.832 499.336 82.12 502.792 94.152L481.672 99.784C480.648 95.688 479.624 91.72 478.728 87.624C469.768 78.536 460.68 69.448 452.36 59.464C453 74.952 451.592 90.44 448.392 105.544L427.144 100.808C429.448 90.056 430.856 78.92 430.856 67.912C430.856 56.904 429.704 45.768 429.064 34.76C428.552 27.336 428.552 19.912 427.528 12.488Z" fill="#FFC33F"/>
<path d="M392.67 101.883L373.367 103.68C373.594 95.3703 371.891 87.2852 370.756 79.0878C369.279 68.0831 368.144 57.0783 368.144 45.9613C368.144 29.9034 372.686 8.67999 393.011 8.67999C397.325 8.67999 401.64 10.1398 405.273 12.6103C422.078 24.0642 422.873 54.271 423.781 72.5748C424.122 79.7616 424.69 86.9483 425.144 94.1351L405.955 95.8195C405.387 88.5204 404.933 81.2214 404.592 73.9223C399.596 74.3715 394.6 74.5961 389.604 74.5961C390.853 83.8041 392.67 89.3065 392.67 98.6268V101.883ZM387.674 55.5062H392.443C396.076 55.5062 399.71 55.2817 403.343 54.9448C402.435 46.7474 401.299 38.1008 396.758 31.0263C395.963 29.7911 394.714 27.7698 393.011 27.7698C392.443 27.7698 391.989 27.9944 391.421 28.1067C387.674 32.1493 387.447 40.7958 387.447 46.0736C387.447 49.2178 387.56 52.362 387.674 55.5062Z" fill="#FFC33F"/>
<path d="M367.992 14.008L360.568 34.36C352.248 31.416 343.672 29.624 334.84 29.624C329.592 29.624 316.28 30.264 316.28 37.688C316.28 38.968 316.408 40.248 316.92 41.4C321.4 51.512 364.792 51.64 364.792 78.52C364.792 97.848 345.976 103.224 329.976 103.224C322.168 103.224 314.232 101.816 306.552 100.152L311.288 78.904C318.328 80.44 325.368 81.464 332.664 81.464C336.12 81.464 340.728 81.336 343.032 78.776C340.344 75.704 331.128 72.632 327.16 71.224C310.008 64.824 294.52 58.296 294.52 37.176C294.52 15.416 316.664 7.86401 334.84 7.86401C346.104 7.86401 357.368 10.04 367.992 14.008Z" fill="#FFC33F"/>
<path d="M261.968 70.7755L277.341 86.1391C272.852 90.6522 267.886 94.8498 262.232 98.1138C243.277 109.058 220.488 107.73 208.712 87.3338C196.168 65.6069 200.593 36.152 223.207 23.096C234.181 16.76 249.128 18.3287 255.848 29.9681C267.496 50.1431 250.548 69.6832 236.557 83.0819C241.879 83.852 246.918 81.8291 251.352 79.2691C255.343 76.9651 258.775 73.9492 261.968 70.7755ZM223.839 65.1503C228.281 60.8121 241.036 47.8317 237.196 41.1807C237.004 40.8481 234.752 41.5567 234.309 41.8127C225.662 46.8047 222.748 55.5816 223.839 65.1503Z" fill="#FFC33F"/>
<path d="M201.815 30.976L195.287 51.712C186.711 49.024 178.007 46.336 169.047 46.336C166.615 46.336 164.567 46.72 162.903 48.512C165.207 56.448 198.743 58.624 198.743 84.608C198.743 97.92 184.407 105.344 172.503 105.344C164.567 105.344 156.759 104.064 148.951 102.784L151.895 81.152C158.551 82.304 165.335 83.584 172.247 83.584C173.655 83.584 175.063 83.328 176.343 82.816C170.967 74.112 149.463 75.264 142.423 56.064C141.527 53.632 141.015 51.072 141.015 48.512C141.015 33.536 155.351 24.576 169.047 24.576C180.311 24.576 191.191 27.648 201.815 30.976Z" fill="#FFC33F"/>
<path d="M673.944 26.08L667.416 46.816C658.84 44.128 650.136 41.44 641.176 41.44C638.744 41.44 636.696 41.824 635.032 43.616C637.336 51.552 670.872 53.728 670.872 79.712C670.872 93.024 656.536 100.448 644.632 100.448C636.696 100.448 628.888 99.168 621.08 97.888L624.024 76.256C630.68 77.408 637.464 78.688 644.376 78.688C645.784 78.688 647.192 78.432 648.472 77.92C643.096 69.216 621.592 70.368 614.552 51.168C613.656 48.736 613.144 46.176 613.144 43.616C613.144 28.64 627.48 19.68 641.176 19.68C652.44 19.68 663.32 22.752 673.944 26.08Z" fill="#FFC33F"/>
<path d="M123.776 1.91998L137.984 2.94398C136.96 15.488 133.504 19.584 125.184 28.416L118.528 23.04C123.136 16.768 123.136 9.34398 123.776 1.91998ZM113.536 32.768H135.296V40.96C135.296 46.208 135.424 51.456 135.04 56.704C134.912 59.904 134.528 62.976 134.528 66.048C134.528 68.48 134.784 70.784 134.784 73.088C134.784 76.032 134.4 78.976 134.144 81.92C133.632 87.936 133.632 93.952 133.504 99.84H111.744C111.872 93.568 111.872 87.168 112.384 80.768C112.64 78.208 113.024 75.776 113.024 73.216C113.024 70.784 112.768 68.352 112.768 65.92C112.768 57.6 113.664 49.28 113.664 40.96L113.536 32.768Z" fill="#FFC33F"/>
<path d="M10.112 7.68H31.872V17.28C31.872 26.624 31.872 35.968 31.104 45.184C30.08 56.96 28.544 68.736 28.16 80.64C34.432 80.768 40.832 81.024 47.104 81.024C49.92 81.024 61.696 81.024 64.512 80.896V102.656C61.696 102.784 49.92 102.784 47.104 102.784C37.632 102.784 28.032 102.272 18.56 102.272C12.288 102.272 6.272 103.552 0 103.68V81.92C2.176 81.92 4.352 81.664 6.4 81.28C7.04 60.672 10.112 41.856 10.112 20.736V7.68ZM64.256 71.552L42.496 72.32C40.832 59.776 40.32 55.168 40.32 42.496C40.32 24.192 45.44 0 68.352 0C100.096 0 102.016 50.944 103.04 72.832C103.424 81.024 104.064 91.52 104.576 99.712L82.944 101.632C82.304 93.312 81.536 79.104 81.152 70.784C75.52 71.296 69.888 71.552 64.256 71.552ZM62.08 49.792H67.456C71.552 49.792 75.648 49.536 79.744 49.152C79.232 44.16 75.52 21.76 68.352 21.76C60.8 21.76 61.824 43.392 62.08 49.792Z" fill="#FFC33F"/>
</svg>
